<?xml version="1.0" encoding="utf-8" ?>
<svg baseProfile="full" height="1965" version="1.1" viewBox="0 0 1780 1965" width="1780" xmlns="http://www.w3.org/2000/svg" xmlns:ev="http://www.w3.org/2001/xml-events" xmlns:xlink="http://www.w3.org/1999/xlink"><defs /><path d="M 833 1587 L 833 1589 L 837 1589 L 837 1587 Z M 639 1586 L 639 1590 L 641 1590 L 641 1586 Z M 274 1586 L 273 1587 L 273 1590 L 274 1591 L 277 1591 L 277 1586 Z M 1244 1585 L 1244 1591 L 1246 1591 L 1247 1590 L 1247 1587 L 1246 1586 L 1246 1585 Z M 1200 1585 L 1200 1586 L 1199 1587 L 1198 1587 L 1198 1589 L 1199 1590 L 1199 1591 L 1202 1591 L 1202 1585 Z M 321 1585 L 321 1590 L 324 1590 L 324 1587 L 323 1586 L 323 1585 Z M 191 1585 L 191 1591 L 193 1591 L 194 1590 L 195 1590 L 195 1588 L 193 1586 L 193 1585 Z M 147 1585 L 145 1585 L 145 1587 L 144 1588 L 143 1588 L 143 1591 L 147 1591 Z M 1124 1584 L 1124 1589 L 1127 1589 L 1127 1586 L 1126 1585 L 1126 1584 Z M 1081 1583 L 1079 1583 L 1078 1584 L 1078 1585 L 1076 1587 L 1076 1591 L 1081 1591 Z M 1540 1533 L 1540 1535 L 1541 1536 L 1545 1536 L 1546 1535 L 1546 1533 Z M 1334 1529 L 1334 1531 L 1335 1532 L 1337 1532 L 1337 1529 Z M 1241 1485 L 1241 1492 L 1247 1492 L 1247 1488 L 1244 1488 L 1243 1487 L 1243 1485 Z M 1602 1482 L 1602 1485 L 1606 1485 L 1606 1482 Z M 1618 1458 L 1618 1460 L 1620 1460 L 1620 1458 Z M 1124 1436 L 1124 1442 L 1126 1442 L 1126 1441 L 1127 1440 L 1127 1437 L 1126 1436 Z M 1077 1436 L 1077 1439 L 1079 1439 L 1079 1436 Z M 687 1436 L 687 1440 L 689 1440 L 690 1439 L 690 1436 Z M 145 1436 L 145 1438 L 147 1438 L 147 1436 Z M 234 1368 L 234 1374 L 238 1374 L 238 1371 L 236 1369 L 236 1368 Z M 145 1367 L 143 1367 L 143 1368 L 140 1371 L 140 1374 L 145 1374 Z M 223 1171 L 223 1176 L 229 1176 L 229 1174 L 228 1173 L 227 1173 L 226 1172 L 226 1171 Z M 1312 982 L 1312 986 L 1315 986 L 1315 983 L 1314 982 Z M 1153 591 L 1153 593 L 1156 596 L 1158 596 L 1158 590 L 1155 590 L 1154 591 Z M 813 587 L 813 589 L 814 590 L 814 592 L 815 592 L 816 593 L 816 594 L 818 594 L 818 587 Z M 471 560 L 471 937 L 469 959 L 455 983 L 456 987 L 610 985 L 601 972 L 594 952 L 593 734 L 596 723 L 604 723 L 880 987 L 953 987 L 959 984 L 959 910 L 954 910 L 843 806 L 833 796 L 833 786 L 821 784 L 641 615 L 615 587 L 601 577 Z M 1281 496 L 1279 493 L 1279 491 L 1276 484 L 1273 481 L 1272 476 L 1270 474 L 1270 472 L 1266 464 L 1263 461 L 1263 459 L 1261 459 L 1260 458 L 1252 459 L 1251 460 L 1246 461 L 1242 464 L 1238 465 L 1231 469 L 1226 470 L 1224 472 L 1220 473 L 1216 476 L 1212 477 L 1205 481 L 1200 482 L 1193 486 L 1188 487 L 1183 490 L 1181 490 L 1179 492 L 1173 493 L 1168 496 L 1165 496 L 1161 498 L 1157 502 L 1153 503 L 1150 505 L 1148 505 L 1142 509 L 1136 510 L 1130 514 L 1124 515 L 1115 521 L 1113 521 L 1103 526 L 1100 526 L 1091 531 L 1086 532 L 1083 534 L 1080 534 L 1079 536 L 1076 536 L 1071 540 L 1068 540 L 1061 544 L 1059 544 L 1057 546 L 1057 550 L 1059 553 L 1060 557 L 1064 561 L 1064 563 L 1067 566 L 1077 566 L 1084 562 L 1088 562 L 1089 561 L 1096 560 L 1100 558 L 1103 558 L 1115 553 L 1119 553 L 1120 552 L 1126 551 L 1129 549 L 1132 549 L 1135 547 L 1137 547 L 1147 543 L 1151 543 L 1154 541 L 1157 541 L 1162 538 L 1168 537 L 1174 534 L 1178 534 L 1181 532 L 1189 531 L 1192 529 L 1196 529 L 1200 527 L 1203 527 L 1210 523 L 1212 523 L 1216 521 L 1220 521 L 1221 520 L 1226 519 L 1229 517 L 1236 516 L 1237 515 L 1239 515 L 1241 513 L 1244 513 L 1248 511 L 1252 511 L 1255 509 L 1257 509 L 1261 507 L 1270 506 L 1274 503 L 1278 503 L 1281 500 Z M 486 496 L 486 500 L 488 502 L 492 503 L 497 506 L 500 506 L 507 509 L 510 509 L 514 511 L 517 511 L 520 513 L 524 513 L 525 514 L 527 514 L 530 516 L 532 516 L 539 519 L 544 519 L 547 521 L 553 522 L 554 523 L 556 523 L 557 524 L 559 524 L 566 527 L 570 527 L 574 529 L 579 529 L 584 532 L 586 532 L 590 534 L 593 534 L 594 535 L 597 535 L 600 537 L 606 538 L 618 543 L 623 543 L 626 545 L 631 546 L 634 548 L 645 550 L 648 552 L 655 553 L 656 554 L 658 554 L 662 556 L 665 556 L 672 559 L 679 560 L 685 563 L 689 563 L 693 565 L 700 565 L 705 561 L 709 553 L 709 549 L 710 548 L 710 546 L 709 544 L 706 542 L 703 542 L 698 539 L 696 539 L 691 536 L 689 536 L 683 532 L 681 532 L 678 530 L 675 530 L 667 526 L 665 524 L 663 524 L 660 522 L 657 522 L 654 520 L 652 520 L 645 516 L 641 515 L 639 513 L 633 510 L 625 508 L 609 500 L 607 500 L 602 497 L 600 497 L 584 488 L 576 486 L 567 481 L 561 480 L 559 478 L 551 474 L 544 472 L 542 470 L 539 470 L 532 466 L 525 464 L 513 458 L 505 458 L 505 459 L 500 465 L 499 470 L 497 472 L 494 478 L 494 480 L 490 488 L 488 490 L 488 492 Z M 1223 404 L 1218 399 L 1218 398 L 1212 393 L 1212 392 L 1210 390 L 1207 389 L 1202 384 L 1201 384 L 1194 376 L 1189 373 L 1185 373 L 1182 376 L 1179 377 L 1179 378 L 1177 380 L 1174 381 L 1167 388 L 1163 390 L 1163 391 L 1161 392 L 1158 396 L 1155 397 L 1143 408 L 1135 413 L 1133 416 L 1128 419 L 1128 420 L 1126 421 L 1121 426 L 1120 426 L 1120 427 L 1118 429 L 1110 434 L 1105 439 L 1104 439 L 1101 442 L 1096 445 L 1090 451 L 1086 453 L 1078 461 L 1070 466 L 1065 471 L 1064 471 L 1064 472 L 1062 473 L 1057 479 L 1053 481 L 1049 485 L 1043 488 L 1038 494 L 1027 501 L 1022 507 L 1022 511 L 1023 513 L 1027 517 L 1028 517 L 1036 523 L 1042 523 L 1046 519 L 1048 519 L 1051 516 L 1053 516 L 1058 512 L 1060 512 L 1062 510 L 1067 508 L 1074 502 L 1077 501 L 1080 498 L 1081 498 L 1086 494 L 1089 493 L 1097 487 L 1099 487 L 1108 480 L 1114 478 L 1121 472 L 1134 466 L 1137 463 L 1143 460 L 1150 454 L 1155 452 L 1158 449 L 1163 447 L 1166 444 L 1169 443 L 1171 441 L 1173 441 L 1175 439 L 1180 437 L 1187 431 L 1194 428 L 1200 423 L 1204 422 L 1209 417 L 1211 417 L 1215 415 L 1223 408 Z M 542 403 L 542 406 L 544 408 L 544 409 L 545 409 L 551 415 L 553 415 L 560 421 L 569 425 L 571 427 L 578 430 L 581 433 L 591 438 L 593 440 L 600 444 L 603 447 L 607 448 L 616 455 L 623 458 L 627 462 L 641 469 L 646 474 L 655 478 L 666 487 L 670 488 L 672 490 L 678 493 L 681 496 L 692 501 L 700 508 L 703 509 L 706 512 L 708 512 L 716 517 L 721 523 L 723 524 L 731 523 L 733 521 L 734 521 L 743 511 L 743 506 L 734 497 L 733 497 L 729 493 L 728 493 L 727 491 L 726 491 L 722 487 L 721 487 L 716 482 L 712 480 L 708 476 L 707 476 L 703 472 L 702 472 L 697 467 L 696 467 L 691 462 L 690 462 L 685 457 L 684 457 L 675 448 L 672 447 L 671 445 L 669 444 L 663 438 L 659 436 L 655 432 L 653 432 L 641 421 L 640 421 L 638 418 L 637 418 L 629 411 L 625 409 L 617 400 L 611 397 L 609 395 L 609 394 L 608 394 L 602 389 L 600 389 L 599 388 L 599 386 L 595 384 L 591 379 L 591 378 L 586 376 L 583 373 L 579 372 L 578 373 L 574 374 L 572 376 L 568 378 L 568 379 L 563 384 L 562 384 L 561 387 L 558 391 L 556 391 L 553 395 L 550 396 L 544 402 Z M 1131 332 L 1109 321 L 1105 320 L 1103 318 L 1100 317 L 1096 314 L 1094 314 L 1091 312 L 1088 312 L 1086 313 L 1082 317 L 1082 319 L 1078 324 L 1077 327 L 1072 332 L 1072 334 L 1068 339 L 1066 343 L 1066 345 L 1062 349 L 1060 354 L 1054 361 L 1051 367 L 1048 370 L 1048 371 L 1044 376 L 1043 380 L 1038 385 L 1038 387 L 1032 394 L 1032 395 L 1028 400 L 1027 403 L 1019 414 L 1019 416 L 1016 420 L 1016 423 L 1014 424 L 1014 425 L 1009 430 L 1008 433 L 1005 436 L 1003 441 L 1000 444 L 999 447 L 994 453 L 994 455 L 992 456 L 990 461 L 981 472 L 980 476 L 977 480 L 977 482 L 981 486 L 984 487 L 987 490 L 993 493 L 998 493 L 999 491 L 1004 486 L 1006 486 L 1007 484 L 1009 483 L 1012 479 L 1013 479 L 1017 472 L 1023 466 L 1023 465 L 1033 453 L 1033 452 L 1036 449 L 1037 449 L 1042 444 L 1044 440 L 1046 438 L 1047 438 L 1050 435 L 1050 434 L 1060 425 L 1060 424 L 1069 414 L 1072 409 L 1079 402 L 1079 400 L 1081 399 L 1082 397 L 1087 392 L 1088 392 L 1092 388 L 1093 388 L 1097 381 L 1103 375 L 1103 374 L 1107 370 L 1108 370 L 1108 369 L 1111 366 L 1112 363 L 1116 359 L 1116 358 L 1118 357 L 1119 355 L 1130 344 L 1130 343 L 1134 338 L 1134 335 Z M 632 334 L 632 337 L 634 338 L 635 341 L 638 344 L 640 348 L 645 353 L 645 354 L 648 356 L 651 361 L 660 370 L 660 371 L 663 374 L 663 375 L 665 376 L 665 377 L 669 381 L 669 382 L 671 383 L 672 385 L 673 385 L 680 392 L 684 399 L 685 399 L 686 401 L 691 406 L 691 407 L 698 413 L 698 414 L 704 421 L 704 422 L 720 438 L 721 441 L 725 445 L 725 446 L 727 447 L 728 449 L 732 453 L 733 453 L 734 455 L 736 456 L 736 458 L 740 462 L 740 463 L 746 469 L 747 469 L 748 471 L 750 472 L 751 475 L 766 492 L 768 493 L 774 493 L 789 484 L 789 479 L 788 478 L 788 476 L 783 470 L 780 464 L 777 461 L 775 456 L 773 455 L 773 454 L 770 451 L 769 448 L 764 442 L 762 437 L 759 434 L 759 432 L 751 422 L 746 412 L 741 407 L 739 402 L 736 399 L 733 392 L 727 385 L 724 379 L 719 374 L 719 371 L 717 369 L 713 362 L 710 359 L 707 352 L 701 345 L 699 341 L 699 339 L 695 334 L 695 332 L 692 329 L 692 328 L 690 326 L 690 324 L 687 321 L 686 318 L 683 315 L 683 314 L 681 313 L 681 312 L 679 311 L 673 312 L 661 318 L 659 320 L 657 320 L 653 323 L 645 326 L 643 328 L 638 330 L 636 332 Z M 1022 286 L 1018 286 L 1012 283 L 1002 282 L 1001 281 L 998 281 L 997 280 L 991 280 L 988 278 L 981 278 L 980 277 L 978 277 L 977 278 L 974 278 L 973 279 L 973 284 L 972 285 L 971 291 L 970 292 L 970 298 L 969 299 L 969 302 L 966 307 L 966 311 L 962 319 L 962 324 L 960 328 L 959 338 L 958 339 L 957 345 L 956 346 L 956 348 L 954 352 L 953 359 L 950 365 L 950 369 L 949 370 L 949 374 L 947 378 L 947 382 L 946 383 L 945 390 L 943 394 L 943 397 L 941 401 L 941 404 L 940 405 L 940 408 L 939 409 L 938 416 L 937 417 L 937 419 L 935 423 L 934 430 L 933 431 L 933 433 L 932 434 L 932 436 L 931 437 L 931 439 L 929 443 L 928 451 L 926 455 L 926 463 L 925 464 L 925 466 L 928 469 L 932 469 L 935 471 L 938 471 L 939 472 L 942 472 L 943 473 L 947 473 L 949 472 L 950 468 L 953 465 L 955 460 L 957 458 L 957 456 L 959 453 L 960 448 L 963 444 L 964 438 L 967 434 L 967 432 L 968 431 L 969 426 L 971 423 L 971 421 L 973 419 L 973 417 L 975 414 L 975 412 L 977 410 L 977 408 L 979 406 L 980 400 L 982 398 L 985 390 L 988 387 L 991 381 L 991 379 L 992 378 L 992 376 L 994 372 L 994 369 L 998 362 L 998 360 L 1000 358 L 1000 356 L 1002 353 L 1004 345 L 1013 327 L 1013 324 L 1017 317 L 1018 312 L 1026 297 L 1027 290 L 1026 288 Z M 743 286 L 741 288 L 741 294 L 744 300 L 745 306 L 747 309 L 748 313 L 752 318 L 752 320 L 754 323 L 754 327 L 760 339 L 760 343 L 762 345 L 765 351 L 765 353 L 768 358 L 768 360 L 771 364 L 771 366 L 772 367 L 772 369 L 773 370 L 775 378 L 784 395 L 784 398 L 788 405 L 788 407 L 791 410 L 794 416 L 794 421 L 798 428 L 798 430 L 801 434 L 802 439 L 804 442 L 804 444 L 806 447 L 806 449 L 809 455 L 811 457 L 811 460 L 815 469 L 818 472 L 831 472 L 832 471 L 836 471 L 838 470 L 840 468 L 841 468 L 842 466 L 841 460 L 840 459 L 840 455 L 839 454 L 839 450 L 838 449 L 838 443 L 837 442 L 837 439 L 834 433 L 833 427 L 831 424 L 831 421 L 830 420 L 829 413 L 828 412 L 828 410 L 826 406 L 826 403 L 825 402 L 825 399 L 824 398 L 824 394 L 823 393 L 823 389 L 822 388 L 822 386 L 820 382 L 820 379 L 819 378 L 819 375 L 818 374 L 818 371 L 817 370 L 817 365 L 813 356 L 812 348 L 810 345 L 809 337 L 807 334 L 807 329 L 806 328 L 805 322 L 803 318 L 802 310 L 801 309 L 801 306 L 800 305 L 799 299 L 797 295 L 797 291 L 796 290 L 796 288 L 795 287 L 795 285 L 793 281 L 793 278 L 791 277 L 785 277 L 784 278 L 776 278 L 772 280 L 768 280 L 765 282 L 758 282 L 754 284 L 750 284 L 749 285 Z M 902 267 L 900 267 L 899 268 L 861 268 L 860 269 L 858 269 L 857 271 L 857 287 L 858 288 L 858 297 L 859 298 L 859 311 L 860 312 L 860 319 L 861 320 L 861 340 L 862 341 L 862 351 L 863 352 L 863 359 L 864 360 L 864 383 L 865 384 L 865 391 L 866 392 L 866 413 L 867 414 L 867 421 L 868 422 L 868 431 L 869 432 L 869 442 L 870 443 L 870 459 L 872 463 L 874 464 L 876 464 L 877 465 L 890 465 L 891 464 L 895 464 L 897 461 L 897 449 L 898 448 L 898 437 L 899 436 L 899 424 L 900 423 L 900 417 L 901 416 L 901 411 L 902 410 L 902 394 L 903 393 L 903 380 L 904 379 L 904 370 L 905 369 L 905 345 L 906 344 L 906 336 L 907 335 L 907 324 L 908 323 L 908 316 L 909 315 L 909 284 L 910 283 L 910 278 L 911 277 L 911 272 L 910 270 L 908 268 L 903 268 Z" fill="#f2d21a" fill-rule="evenodd" stroke="none" /><path d="M 881 1463 L 886 1463 L 887 1462 L 905 1462 L 906 1463 L 930 1463 L 931 1464 L 933 1464 L 934 1465 L 938 1465 L 939 1466 L 943 1466 L 945 1468 L 947 1468 L 952 1472 L 954 1472 L 956 1474 L 959 1475 L 966 1482 L 966 1483 L 970 1488 L 970 1489 L 973 1494 L 973 1496 L 974 1497 L 974 1501 L 976 1504 L 976 1522 L 975 1523 L 975 1527 L 973 1530 L 973 1533 L 972 1534 L 972 1535 L 971 1536 L 970 1539 L 968 1541 L 967 1544 L 965 1546 L 964 1546 L 964 1547 L 961 1550 L 960 1550 L 956 1554 L 955 1554 L 953 1556 L 952 1556 L 951 1557 L 950 1557 L 945 1560 L 943 1560 L 942 1561 L 940 1561 L 937 1563 L 928 1563 L 927 1564 L 881 1564 L 879 1562 L 879 1474 L 880 1473 L 880 1464 Z M 449 1463 L 453 1463 L 456 1461 L 458 1461 L 459 1460 L 463 1460 L 464 1459 L 466 1459 L 467 1458 L 487 1458 L 488 1459 L 493 1459 L 494 1460 L 498 1460 L 499 1461 L 503 1461 L 505 1463 L 508 1463 L 510 1465 L 515 1467 L 518 1470 L 521 1471 L 524 1474 L 525 1474 L 526 1475 L 526 1476 L 528 1478 L 528 1479 L 529 1479 L 530 1480 L 530 1481 L 534 1486 L 534 1488 L 536 1490 L 536 1493 L 538 1495 L 538 1497 L 540 1500 L 540 1504 L 541 1505 L 541 1525 L 539 1528 L 539 1530 L 538 1531 L 538 1534 L 536 1536 L 536 1539 L 534 1541 L 534 1542 L 532 1544 L 532 1545 L 530 1547 L 530 1548 L 529 1549 L 528 1549 L 528 1550 L 521 1557 L 520 1557 L 517 1560 L 516 1560 L 515 1561 L 513 1561 L 511 1563 L 510 1563 L 509 1564 L 507 1564 L 505 1566 L 503 1566 L 501 1568 L 492 1568 L 491 1569 L 468 1569 L 467 1568 L 458 1568 L 456 1566 L 454 1566 L 452 1564 L 447 1563 L 446 1562 L 445 1562 L 444 1561 L 444 1560 L 442 1560 L 441 1559 L 440 1559 L 439 1558 L 439 1557 L 438 1557 L 433 1553 L 433 1552 L 426 1545 L 425 1542 L 424 1542 L 423 1541 L 423 1539 L 421 1536 L 421 1534 L 420 1533 L 420 1532 L 419 1531 L 419 1529 L 418 1528 L 418 1522 L 417 1521 L 417 1508 L 418 1507 L 418 1503 L 419 1502 L 419 1497 L 420 1496 L 420 1494 L 423 1489 L 423 1487 L 426 1484 L 426 1483 L 429 1480 L 429 1479 L 433 1475 L 433 1474 L 434 1473 L 435 1473 L 440 1468 L 442 1468 L 444 1466 L 447 1465 Z M 1198 1436 L 1198 1439 L 1204 1447 L 1205 1456 L 1204 1492 L 1205 1570 L 1203 1583 L 1199 1587 L 1200 1590 L 1247 1589 L 1241 1577 L 1242 1491 L 1252 1492 L 1296 1540 L 1299 1541 L 1307 1551 L 1336 1581 L 1336 1583 L 1338 1583 L 1344 1589 L 1378 1590 L 1379 1588 L 1378 1451 L 1385 1436 L 1337 1436 L 1343 1448 L 1342 1532 L 1334 1532 L 1326 1524 L 1319 1514 L 1285 1480 L 1285 1478 L 1247 1438 L 1244 1436 L 1231 1437 Z M 1078 1436 L 1078 1440 L 1081 1443 L 1081 1444 L 1083 1447 L 1083 1578 L 1082 1579 L 1082 1581 L 1078 1585 L 1078 1586 L 1077 1587 L 1077 1590 L 1117 1590 L 1118 1589 L 1126 1589 L 1126 1585 L 1124 1583 L 1124 1582 L 1122 1579 L 1122 1576 L 1121 1575 L 1121 1448 L 1122 1447 L 1123 1444 L 1124 1443 L 1125 1443 L 1125 1442 L 1126 1441 L 1126 1437 L 1125 1436 Z M 835 1437 L 836 1441 L 839 1444 L 841 1448 L 841 1502 L 840 1503 L 840 1550 L 841 1551 L 841 1570 L 840 1571 L 840 1579 L 838 1581 L 838 1583 L 836 1584 L 834 1587 L 834 1590 L 855 1590 L 856 1589 L 932 1589 L 933 1588 L 941 1588 L 944 1586 L 951 1586 L 957 1583 L 961 1583 L 964 1581 L 967 1581 L 972 1578 L 975 1578 L 977 1576 L 979 1576 L 981 1573 L 983 1573 L 984 1571 L 993 1565 L 995 1562 L 999 1559 L 999 1557 L 1002 1555 L 1003 1552 L 1005 1551 L 1005 1549 L 1010 1541 L 1011 1536 L 1013 1533 L 1014 1518 L 1015 1517 L 1015 1515 L 1014 1514 L 1014 1500 L 1013 1499 L 1013 1495 L 1011 1492 L 1011 1489 L 1008 1485 L 1008 1482 L 1006 1481 L 1005 1477 L 997 1468 L 997 1467 L 996 1467 L 994 1464 L 987 1458 L 981 1454 L 974 1451 L 972 1449 L 968 1448 L 967 1446 L 963 1446 L 949 1441 L 946 1441 L 941 1439 L 935 1439 L 934 1438 L 908 1437 L 907 1436 L 882 1436 L 881 1437 L 850 1437 L 849 1436 L 836 1436 Z M 639 1436 L 639 1439 L 644 1445 L 644 1447 L 645 1448 L 645 1577 L 644 1578 L 643 1583 L 640 1585 L 639 1589 L 640 1590 L 761 1590 L 762 1591 L 776 1591 L 776 1586 L 778 1583 L 778 1576 L 779 1575 L 779 1572 L 781 1567 L 781 1560 L 776 1560 L 770 1564 L 720 1564 L 719 1565 L 698 1565 L 697 1564 L 686 1564 L 684 1562 L 684 1558 L 683 1557 L 683 1452 L 684 1451 L 684 1446 L 686 1445 L 686 1442 L 689 1439 L 689 1436 Z M 145 1436 L 145 1439 L 150 1446 L 150 1576 L 146 1585 L 144 1586 L 144 1590 L 152 1589 L 194 1590 L 188 1577 L 188 1525 L 189 1524 L 277 1524 L 280 1527 L 280 1577 L 278 1583 L 274 1587 L 274 1590 L 323 1590 L 323 1586 L 318 1578 L 318 1469 L 317 1468 L 318 1446 L 323 1440 L 323 1436 L 275 1436 L 274 1439 L 276 1440 L 280 1449 L 280 1497 L 276 1499 L 257 1500 L 190 1499 L 188 1497 L 187 1457 L 188 1446 L 193 1439 L 193 1436 Z M 1448 1479 L 1448 1482 L 1443 1491 L 1443 1495 L 1441 1497 L 1441 1530 L 1448 1549 L 1453 1554 L 1456 1560 L 1466 1570 L 1481 1580 L 1513 1591 L 1528 1591 L 1531 1593 L 1553 1593 L 1555 1591 L 1566 1591 L 1593 1583 L 1616 1571 L 1626 1563 L 1625 1510 L 1542 1509 L 1540 1520 L 1541 1536 L 1544 1536 L 1550 1531 L 1584 1531 L 1590 1533 L 1589 1556 L 1571 1564 L 1555 1566 L 1551 1568 L 1528 1568 L 1527 1566 L 1519 1566 L 1515 1563 L 1509 1562 L 1497 1554 L 1485 1541 L 1480 1528 L 1479 1509 L 1481 1496 L 1483 1495 L 1486 1486 L 1498 1473 L 1515 1463 L 1528 1460 L 1563 1461 L 1565 1463 L 1572 1463 L 1575 1466 L 1583 1468 L 1591 1473 L 1601 1482 L 1603 1487 L 1606 1487 L 1615 1470 L 1619 1458 L 1596 1446 L 1562 1435 L 1528 1434 L 1509 1437 L 1479 1448 L 1458 1465 L 1458 1467 L 1454 1470 L 1450 1478 Z M 394 1467 L 392 1471 L 390 1472 L 388 1477 L 386 1479 L 386 1481 L 383 1485 L 383 1488 L 380 1494 L 380 1498 L 379 1499 L 379 1503 L 378 1504 L 378 1527 L 381 1533 L 381 1537 L 383 1539 L 383 1542 L 386 1546 L 386 1548 L 388 1550 L 390 1555 L 394 1559 L 394 1560 L 405 1570 L 405 1571 L 407 1571 L 408 1573 L 414 1576 L 419 1580 L 423 1581 L 425 1583 L 428 1583 L 430 1585 L 436 1586 L 438 1588 L 444 1588 L 451 1591 L 457 1591 L 458 1592 L 463 1592 L 464 1593 L 497 1593 L 500 1591 L 509 1591 L 512 1589 L 519 1588 L 530 1583 L 533 1583 L 550 1573 L 556 1567 L 557 1567 L 564 1559 L 565 1559 L 566 1556 L 568 1554 L 568 1552 L 570 1551 L 571 1548 L 573 1546 L 573 1544 L 576 1539 L 576 1536 L 578 1535 L 580 1512 L 579 1511 L 579 1498 L 578 1497 L 578 1494 L 577 1493 L 575 1485 L 563 1467 L 552 1456 L 550 1456 L 549 1454 L 547 1454 L 539 1448 L 535 1446 L 533 1446 L 529 1443 L 526 1443 L 524 1441 L 521 1441 L 513 1438 L 509 1438 L 503 1435 L 493 1435 L 492 1434 L 464 1434 L 463 1435 L 455 1435 L 454 1436 L 440 1438 L 435 1441 L 432 1441 L 430 1443 L 425 1444 L 423 1446 L 421 1446 L 417 1448 L 414 1451 L 408 1454 L 407 1456 L 405 1456 L 405 1457 L 401 1461 L 400 1461 L 400 1462 L 398 1463 L 395 1467 Z M 1432 1129 L 1433 1128 L 1506 1128 L 1507 1129 L 1511 1129 L 1512 1130 L 1514 1130 L 1515 1131 L 1518 1131 L 1519 1132 L 1521 1132 L 1522 1133 L 1525 1134 L 1527 1136 L 1529 1136 L 1530 1137 L 1531 1137 L 1533 1140 L 1535 1140 L 1536 1141 L 1536 1142 L 1542 1147 L 1542 1148 L 1544 1150 L 1544 1151 L 1545 1151 L 1546 1152 L 1546 1153 L 1550 1160 L 1550 1163 L 1551 1164 L 1551 1169 L 1552 1170 L 1552 1181 L 1551 1182 L 1551 1187 L 1550 1188 L 1549 1193 L 1547 1195 L 1546 1198 L 1541 1203 L 1541 1204 L 1539 1206 L 1538 1206 L 1536 1208 L 1535 1208 L 1529 1213 L 1528 1213 L 1527 1214 L 1525 1214 L 1523 1216 L 1520 1216 L 1519 1217 L 1517 1217 L 1516 1218 L 1511 1218 L 1508 1220 L 1494 1220 L 1493 1221 L 1443 1221 L 1442 1220 L 1434 1220 L 1432 1218 L 1432 1210 L 1431 1209 L 1431 1163 L 1432 1162 Z M 1085 1128 L 1089 1128 L 1096 1125 L 1113 1124 L 1114 1123 L 1140 1123 L 1141 1124 L 1151 1124 L 1157 1126 L 1163 1126 L 1166 1128 L 1170 1128 L 1173 1130 L 1183 1133 L 1185 1135 L 1188 1135 L 1190 1137 L 1194 1138 L 1200 1143 L 1203 1143 L 1210 1151 L 1212 1151 L 1219 1158 L 1220 1161 L 1226 1167 L 1229 1172 L 1229 1174 L 1236 1186 L 1236 1189 L 1240 1198 L 1240 1202 L 1243 1213 L 1243 1252 L 1241 1256 L 1241 1261 L 1240 1265 L 1238 1267 L 1238 1271 L 1236 1274 L 1235 1279 L 1229 1288 L 1229 1290 L 1226 1293 L 1226 1295 L 1215 1308 L 1206 1316 L 1197 1321 L 1194 1324 L 1192 1324 L 1186 1328 L 1183 1328 L 1181 1330 L 1172 1334 L 1159 1336 L 1156 1338 L 1149 1338 L 1148 1339 L 1120 1340 L 1119 1339 L 1101 1338 L 1098 1336 L 1091 1336 L 1066 1327 L 1049 1316 L 1035 1303 L 1035 1301 L 1033 1300 L 1021 1281 L 1021 1278 L 1018 1273 L 1018 1270 L 1014 1261 L 1013 1248 L 1011 1245 L 1011 1224 L 1012 1223 L 1014 1200 L 1016 1199 L 1018 1194 L 1018 1190 L 1021 1186 L 1026 1173 L 1029 1171 L 1029 1169 L 1033 1163 L 1042 1153 L 1059 1140 L 1072 1133 L 1075 1133 L 1077 1131 L 1082 1130 Z M 662 1133 L 684 1126 L 695 1125 L 701 1123 L 731 1123 L 732 1124 L 743 1124 L 748 1126 L 753 1126 L 756 1128 L 760 1128 L 766 1131 L 769 1131 L 771 1133 L 784 1138 L 789 1141 L 790 1143 L 792 1143 L 808 1157 L 810 1161 L 814 1164 L 823 1178 L 824 1183 L 826 1185 L 826 1188 L 833 1205 L 833 1212 L 835 1216 L 835 1247 L 833 1252 L 833 1259 L 831 1262 L 831 1266 L 829 1269 L 826 1279 L 821 1286 L 820 1290 L 814 1297 L 814 1299 L 810 1302 L 810 1304 L 804 1310 L 787 1323 L 774 1328 L 771 1331 L 768 1331 L 755 1336 L 750 1336 L 746 1338 L 736 1338 L 735 1339 L 691 1338 L 687 1336 L 673 1333 L 670 1331 L 667 1331 L 663 1328 L 660 1328 L 659 1326 L 656 1326 L 653 1323 L 651 1323 L 637 1313 L 623 1299 L 623 1297 L 613 1283 L 613 1280 L 611 1279 L 611 1276 L 608 1271 L 608 1267 L 604 1254 L 603 1240 L 602 1239 L 602 1229 L 603 1228 L 603 1213 L 604 1212 L 604 1206 L 606 1202 L 606 1197 L 611 1187 L 611 1184 L 617 1175 L 618 1171 L 629 1157 L 647 1141 L 649 1141 L 651 1139 L 659 1136 Z M 1344 1088 L 1344 1091 L 1356 1109 L 1359 1119 L 1360 1343 L 1356 1356 L 1345 1370 L 1345 1373 L 1446 1373 L 1446 1369 L 1439 1362 L 1433 1347 L 1431 1302 L 1432 1261 L 1434 1258 L 1479 1258 L 1546 1354 L 1546 1373 L 1651 1372 L 1650 1369 L 1632 1356 L 1614 1335 L 1558 1257 L 1558 1249 L 1560 1247 L 1565 1247 L 1584 1239 L 1609 1221 L 1623 1199 L 1626 1187 L 1626 1157 L 1615 1134 L 1600 1118 L 1570 1101 L 1531 1091 L 1496 1088 Z M 139 1088 L 151 1105 L 156 1118 L 156 1342 L 153 1354 L 141 1373 L 237 1373 L 225 1352 L 223 1342 L 224 1177 L 233 1177 L 424 1373 L 486 1373 L 486 1113 L 499 1088 L 408 1088 L 420 1112 L 419 1273 L 411 1273 L 234 1088 Z M 556 1149 L 547 1162 L 536 1183 L 535 1191 L 533 1192 L 533 1197 L 531 1200 L 528 1221 L 528 1239 L 531 1261 L 536 1278 L 549 1303 L 560 1317 L 576 1333 L 609 1355 L 635 1366 L 652 1371 L 658 1371 L 660 1373 L 671 1374 L 674 1376 L 685 1376 L 688 1378 L 701 1379 L 751 1378 L 754 1376 L 766 1376 L 791 1370 L 811 1363 L 836 1351 L 862 1333 L 883 1311 L 893 1296 L 893 1293 L 903 1274 L 909 1244 L 909 1216 L 901 1184 L 899 1183 L 899 1179 L 896 1177 L 896 1173 L 880 1149 L 859 1128 L 831 1109 L 826 1108 L 819 1103 L 816 1103 L 815 1101 L 809 1100 L 807 1098 L 786 1091 L 779 1091 L 773 1088 L 741 1084 L 699 1084 L 664 1088 L 629 1098 L 620 1103 L 616 1103 L 610 1108 L 600 1112 L 577 1128 Z M 999 1118 L 978 1136 L 976 1136 L 961 1154 L 953 1169 L 951 1170 L 944 1184 L 939 1200 L 936 1239 L 938 1259 L 941 1270 L 956 1303 L 976 1327 L 1004 1348 L 1034 1363 L 1058 1371 L 1080 1376 L 1115 1379 L 1144 1379 L 1174 1376 L 1207 1368 L 1209 1366 L 1226 1361 L 1248 1350 L 1267 1337 L 1293 1311 L 1296 1304 L 1300 1300 L 1311 1277 L 1318 1247 L 1318 1219 L 1313 1192 L 1308 1178 L 1300 1163 L 1286 1144 L 1269 1128 L 1249 1114 L 1212 1096 L 1185 1090 L 1184 1088 L 1170 1088 L 1167 1086 L 1151 1084 L 1124 1083 L 1091 1085 L 1053 1093 L 1041 1098 L 1037 1098 L 1034 1101 L 1020 1106 Z M 1295 558 L 1154 591 L 1166 614 L 1168 630 L 1166 733 L 960 734 L 957 588 L 813 588 L 826 605 L 834 635 L 834 796 L 955 910 L 958 909 L 960 818 L 1166 818 L 1168 953 L 1159 976 L 1151 986 L 1314 986 L 1298 959 L 1296 948 Z" fill="#ffffff" fill-rule="evenodd" stroke="none" /></svg>